<svg width="179" height="56" viewBox="0 0 179 56" fill="none" xmlns="http://www.w3.org/2000/svg">
<path d="M61.2396 10.4093C59.5542 9.61917 57.3832 9.23794 55.2013 9.34899C53.0193 9.46003 51.0041 10.0543 49.5963 11.0019L28.9258 25.0042C27.6818 25.8423 27 26.9008 27 27.9942C27 29.0876 27.6818 30.1462 28.9258 30.9843L49.5963 44.9866C50.2897 45.4609 51.1424 45.8531 52.1053 46.1407C53.0681 46.4283 54.1222 46.6057 55.2069 46.6626C56.2916 46.7195 57.3856 46.6548 58.4258 46.4722C59.4661 46.2896 60.4321 45.9928 61.2685 45.5987C62.1048 45.2047 62.7949 44.7212 63.2992 44.1761C63.8034 43.631 64.1118 43.035 64.2066 42.4223C64.3014 41.8097 64.1808 41.1925 63.8517 40.6063C63.5225 40.0201 62.9914 39.4764 62.2887 39.0065L46.0274 27.9944L62.2892 16.9821C63.6935 16.0318 64.3718 14.8056 64.175 13.5731C63.9782 12.3405 62.9223 11.2025 61.2396 10.4093Z" fill="url(#paint0_linear_110_44)"/>
<path d="M103.033 0.0822555C100.885 -0.147303 98.6632 0.108007 96.8454 0.793302C95.0275 1.4786 93.7585 2.53917 93.3112 3.74703L76.7747 50.4212C76.5602 51.0223 76.5582 51.6413 76.7686 52.2428C76.9791 52.8443 77.398 53.4165 78.0012 53.9263C78.6044 54.4362 79.38 54.8738 80.2836 55.214C81.1872 55.5542 82.2009 55.7903 83.2666 55.9088C83.8032 55.9711 84.3498 56.0017 84.8976 55.9999C86.8072 55.9982 88.6568 55.6232 90.1318 54.9385C91.6068 54.2539 92.6162 53.3019 92.9881 52.2446L109.525 5.57017C109.739 4.96909 109.741 4.35 109.531 3.74846C109.32 3.14692 108.902 2.57476 108.298 2.06484C107.695 1.55492 106.919 1.11729 106.016 0.777057C105.112 0.436828 104.098 0.200708 103.033 0.0822555Z" fill="url(#paint1_linear_110_44)"/>
<path d="M157.374 25.001L136.704 10.9987C136.01 10.5245 135.158 10.1322 134.195 9.84461C133.232 9.55699 132.178 9.37963 131.093 9.32274C130.008 9.26586 128.914 9.33056 127.874 9.51313C126.834 9.69571 125.868 9.99255 125.031 10.3866C124.195 10.7807 123.505 11.2641 123.001 11.8092C122.497 12.3544 122.188 12.9504 122.093 13.563C121.998 14.1756 122.119 14.7928 122.448 15.379C122.777 15.9652 123.309 16.5089 124.011 16.9789L140.273 27.9913L124.011 39.0035C123.308 39.4734 122.777 40.0171 122.448 40.6034C122.119 41.1896 121.998 41.8067 122.093 42.4194C122.188 43.032 122.496 43.628 123 44.1731C123.505 44.7182 124.195 45.2017 125.031 45.5957C125.867 45.9898 126.833 46.2866 127.874 46.4692C128.914 46.6518 130.008 46.7165 131.093 46.6596C132.177 46.6027 133.231 46.4254 134.194 46.1377C135.157 45.8501 136.01 45.4579 136.703 44.9836L157.374 30.9812C158.618 30.1431 159.3 29.0845 159.3 27.9911C159.3 26.8977 158.618 25.8391 157.374 25.001Z" fill="url(#paint2_linear_110_44)"/>
<path d="M15.6094 35.7676C15.6094 35.3105 15.5391 34.9004 15.3984 34.5371C15.2695 34.1621 15.0234 33.8223 14.6602 33.5176C14.2969 33.2012 13.7871 32.8906 13.1309 32.5859C12.4746 32.2812 11.625 31.9648 10.582 31.6367C9.42188 31.2617 8.32031 30.8398 7.27734 30.3711C6.24609 29.9023 5.33203 29.3574 4.53516 28.7363C3.75 28.1035 3.12891 27.3711 2.67188 26.5391C2.22656 25.707 2.00391 24.7402 2.00391 23.6387C2.00391 22.5723 2.23828 21.6055 2.70703 20.7383C3.17578 19.8594 3.83203 19.1094 4.67578 18.4883C5.51953 17.8555 6.51562 17.3691 7.66406 17.0293C8.82422 16.6895 10.0957 16.5195 11.4785 16.5195C13.3652 16.5195 15.0117 16.8594 16.418 17.5391C17.8242 18.2188 18.9141 19.1504 19.6875 20.334C20.4727 21.5176 20.8652 22.8711 20.8652 24.3945H15.627C15.627 23.6445 15.4688 22.9883 15.1523 22.4258C14.8477 21.8516 14.3789 21.4004 13.7461 21.0723C13.125 20.7441 12.3398 20.5801 11.3906 20.5801C10.4766 20.5801 9.71484 20.7207 9.10547 21.002C8.49609 21.2715 8.03906 21.6406 7.73438 22.1094C7.42969 22.5664 7.27734 23.082 7.27734 23.6562C7.27734 24.0898 7.38281 24.4824 7.59375 24.834C7.81641 25.1855 8.14453 25.5137 8.57812 25.8184C9.01172 26.123 9.54492 26.4102 10.1777 26.6797C10.8105 26.9492 11.543 27.2129 12.375 27.4707C13.7695 27.8926 14.9941 28.3672 16.0488 28.8945C17.1152 29.4219 18.0059 30.0137 18.7207 30.6699C19.4355 31.3262 19.9746 32.0703 20.3379 32.9023C20.7012 33.7344 20.8828 34.6777 20.8828 35.7324C20.8828 36.8457 20.666 37.8418 20.2324 38.7207C19.7988 39.5996 19.1719 40.3438 18.3516 40.9531C17.5312 41.5625 16.5527 42.0254 15.416 42.3418C14.2793 42.6582 13.0078 42.8164 11.6016 42.8164C10.3359 42.8164 9.08789 42.6523 7.85742 42.3242C6.62695 41.9844 5.50781 41.4746 4.5 40.7949C3.50391 40.1152 2.70703 39.248 2.10938 38.1934C1.51172 37.1387 1.21289 35.8906 1.21289 34.4492H6.50391C6.50391 35.2461 6.62695 35.9199 6.87305 36.4707C7.11914 37.0215 7.46484 37.4668 7.91016 37.8066C8.36719 38.1465 8.90625 38.3926 9.52734 38.5449C10.1602 38.6973 10.8516 38.7734 11.6016 38.7734C12.5156 38.7734 13.2656 38.6445 13.8516 38.3867C14.4492 38.1289 14.8887 37.7715 15.1699 37.3145C15.4629 36.8574 15.6094 36.3418 15.6094 35.7676ZM41.5371 27.2949V31.4082H28.1777V27.2949H41.5371ZM29.7422 16.8711V42.4648H24.4688V16.8711H29.7422ZM45.2988 16.8711V42.4648H40.043V16.8711H45.2988ZM60.6094 21.248L53.6484 42.4648H48.041L57.5508 16.8711H61.1191L60.6094 21.248ZM66.3926 42.4648L59.4141 21.248L58.8516 16.8711H62.4551L72.0176 42.4648H66.3926ZM66.0762 32.9375V37.0684H52.5586V32.9375H66.0762ZM91.459 27.2949V31.4082H78.0996V27.2949H91.459ZM79.6641 16.8711V42.4648H74.3906V16.8711H79.6641ZM95.2207 16.8711V42.4648H89.9648V16.8711H95.2207ZM118.318 38.3516V42.4648H100.178V38.3516H118.318ZM118.055 19.8066L102.516 42.4648H98.8066V39.4414L114.469 16.8711H118.055V19.8066ZM116.244 16.8711V21.002H98.8242V16.8711H116.244ZM132.328 21.248L125.367 42.4648H119.76L129.27 16.8711H132.838L132.328 21.248ZM138.111 42.4648L131.133 21.248L130.57 16.8711H134.174L143.736 42.4648H138.111ZM137.795 32.9375V37.0684H124.277V32.9375H137.795ZM151.717 16.8711V42.4648H146.461V16.8711H151.717ZM166.676 31.2324H160.102L160.066 27.6113H165.586C166.559 27.6113 167.355 27.4883 167.977 27.2422C168.598 26.9844 169.061 26.6152 169.365 26.1348C169.682 25.6426 169.84 25.0449 169.84 24.3418C169.84 23.5449 169.688 22.9004 169.383 22.4082C169.09 21.916 168.627 21.5586 167.994 21.3359C167.373 21.1133 166.57 21.002 165.586 21.002H161.93V42.4648H156.656V16.8711H165.586C167.074 16.8711 168.404 17.0117 169.576 17.293C170.76 17.5742 171.762 18.002 172.582 18.5762C173.402 19.1504 174.029 19.877 174.463 20.7559C174.896 21.623 175.113 22.6543 175.113 23.8496C175.113 24.9043 174.873 25.877 174.393 26.7676C173.924 27.6582 173.18 28.3848 172.16 28.9473C171.152 29.5098 169.834 29.8203 168.205 29.8789L166.676 31.2324ZM166.447 42.4648H158.66L160.717 38.3516H166.447C167.373 38.3516 168.129 38.2051 168.715 37.9121C169.301 37.6074 169.734 37.1973 170.016 36.6816C170.297 36.166 170.438 35.5742 170.438 34.9062C170.438 34.1562 170.309 33.5059 170.051 32.9551C169.805 32.4043 169.406 31.9824 168.855 31.6895C168.305 31.3848 167.578 31.2324 166.676 31.2324H161.596L161.631 27.6113H167.959L169.172 29.0352C170.73 29.0117 171.984 29.2871 172.934 29.8613C173.895 30.4238 174.592 31.1562 175.025 32.0586C175.471 32.9609 175.693 33.9277 175.693 34.959C175.693 36.5996 175.336 37.9824 174.621 39.1074C173.906 40.2207 172.857 41.0586 171.475 41.6211C170.104 42.1836 168.428 42.4648 166.447 42.4648Z" fill="white"/>
<defs>
<linearGradient id="paint0_linear_110_44" x1="45.619" y1="9.33008" x2="45.619" y2="46.6826" gradientUnits="userSpaceOnUse">
<stop stop-color="#8576FF"/>
<stop offset="1" stop-color="#1C1678"/>
</linearGradient>
<linearGradient id="paint1_linear_110_44" x1="93.1497" y1="0" x2="93.1497" y2="56" gradientUnits="userSpaceOnUse">
<stop stop-color="#8576FF"/>
<stop offset="1" stop-color="#1C1678"/>
</linearGradient>
<linearGradient id="paint2_linear_110_44" x1="140.681" y1="9.30273" x2="140.681" y2="46.6796" gradientUnits="userSpaceOnUse">
<stop stop-color="#8576FF"/>
<stop offset="1" stop-color="#1C1678"/>
</linearGradient>
</defs>
</svg>
