<svg width="198" height="76" viewBox="0 0 198 76" fill="none" xmlns="http://www.w3.org/2000/svg">
<path d="M61.2396 13.1964C59.5542 12.1947 57.3832 11.7113 55.2013 11.8521C53.0193 11.9929 51.0041 12.7464 49.5963 13.9477L28.9258 31.7006C27.6818 32.7632 27 34.1053 27 35.4916C27 36.8779 27.6818 38.22 28.9258 39.2826L49.5963 57.0355C50.2897 57.6368 51.1424 58.1341 52.1053 58.4987C53.0681 58.8634 54.1222 59.0883 55.2069 59.1604C56.2916 59.2325 57.3856 59.1505 58.4258 58.919C59.4661 58.6875 60.4321 58.3112 61.2685 57.8116C62.1048 57.312 62.7949 56.699 63.2992 56.0079C63.8034 55.3167 64.1118 54.5611 64.2066 53.7844C64.3014 53.0077 64.1808 52.2252 63.8517 51.4819C63.5225 50.7387 62.9914 50.0494 62.2887 49.4535L46.0274 35.4918L62.2892 21.5299C63.6935 20.325 64.3718 18.7703 64.175 17.2076C63.9782 15.6449 62.9223 14.2021 61.2396 13.1964Z" fill="url(#paint0_linear_110_44)"/>
<path d="M103.033 0.104288C100.885 -0.186759 98.6632 0.136937 96.8454 1.00579C95.0275 1.87465 93.7585 3.2193 93.3112 4.7507L76.7747 63.9269C76.5602 64.689 76.5582 65.4738 76.7686 66.2364C76.9791 66.9991 77.398 67.7244 78.0012 68.3709C78.6044 69.0173 79.38 69.5721 80.2836 70.0035C81.1872 70.4348 82.2009 70.7341 83.2666 70.8843C83.8032 70.9634 84.3498 71.0021 84.8976 70.9999C86.8072 70.9978 88.6568 70.5222 90.1318 69.6542C91.6068 68.7862 92.6162 67.5792 92.9881 66.2387L109.525 7.06218C109.739 6.30009 109.741 5.51518 109.531 4.75251C109.32 3.98984 108.902 3.26443 108.298 2.61792C107.695 1.97142 106.919 1.41656 106.016 0.985197C105.112 0.553835 104.098 0.25447 103.033 0.104288Z" fill="url(#paint1_linear_110_44)"/>
<path d="M157.374 31.6981L136.704 13.9452C136.01 13.3439 135.158 12.8466 134.195 12.4819C133.232 12.1173 132.178 11.8924 131.093 11.8203C130.008 11.7482 128.914 11.8302 127.874 12.0617C126.834 12.2932 125.868 12.6695 125.031 13.1691C124.195 13.6687 123.505 14.2817 123.001 14.9728C122.497 15.664 122.188 16.4196 122.093 17.1963C121.998 17.973 122.119 18.7555 122.448 19.4987C122.777 20.242 123.309 20.9313 124.011 21.5272L140.273 35.4893L124.011 49.4512C123.308 50.0471 122.777 50.7364 122.448 51.4796C122.119 52.2229 121.998 53.0054 122.093 53.7821C122.188 54.5588 122.496 55.3144 123 56.0056C123.505 56.6967 124.195 57.3097 125.031 57.8093C125.867 58.3089 126.833 58.6852 127.874 58.9167C128.914 59.1482 130.008 59.2302 131.093 59.1581C132.177 59.086 133.231 58.8611 134.194 58.4964C135.157 58.1318 136.01 57.6345 136.703 57.0332L157.374 39.2801C158.618 38.2175 159.3 36.8754 159.3 35.4891C159.3 34.1028 158.618 32.7607 157.374 31.6981Z" fill="url(#paint2_linear_110_44)"/>
<path d="M17.3438 41.5586C17.3438 41.0508 17.2656 40.5951 17.1094 40.1914C16.9661 39.7747 16.6927 39.3971 16.2891 39.0586C15.8854 38.707 15.319 38.362 14.5898 38.0234C13.8607 37.6849 12.9167 37.3333 11.7578 36.9688C10.4688 36.5521 9.24479 36.0833 8.08594 35.5625C6.9401 35.0417 5.92448 34.4362 5.03906 33.7461C4.16667 33.043 3.47656 32.2292 2.96875 31.3047C2.47396 30.3802 2.22656 29.306 2.22656 28.082C2.22656 26.8971 2.48698 25.8229 3.00781 24.8594C3.52865 23.8828 4.25781 23.0495 5.19531 22.3594C6.13281 21.6562 7.23958 21.1159 8.51562 20.7383C9.80469 20.3607 11.2174 20.1719 12.7539 20.1719C14.8503 20.1719 16.6797 20.5495 18.2422 21.3047C19.8047 22.0599 21.0156 23.0951 21.875 24.4102C22.7474 25.7253 23.1836 27.2292 23.1836 28.9219H17.3633C17.3633 28.0885 17.1875 27.3594 16.8359 26.7344C16.4974 26.0964 15.9766 25.5951 15.2734 25.2305C14.5833 24.8659 13.7109 24.6836 12.6562 24.6836C11.6406 24.6836 10.7943 24.8398 10.1172 25.1523C9.4401 25.4518 8.93229 25.862 8.59375 26.3828C8.25521 26.8906 8.08594 27.4635 8.08594 28.1016C8.08594 28.5833 8.20312 29.0195 8.4375 29.4102C8.6849 29.8008 9.04948 30.1654 9.53125 30.5039C10.013 30.8424 10.6055 31.1615 11.3086 31.4609C12.0117 31.7604 12.8255 32.0534 13.75 32.3398C15.2995 32.8086 16.6602 33.3359 17.832 33.9219C19.0169 34.5078 20.0065 35.1654 20.8008 35.8945C21.5951 36.6237 22.194 37.4505 22.5977 38.375C23.0013 39.2995 23.2031 40.3477 23.2031 41.5195C23.2031 42.7565 22.9622 43.8633 22.4805 44.8398C21.9987 45.8164 21.3021 46.6432 20.3906 47.3203C19.4792 47.9974 18.3919 48.5117 17.1289 48.8633C15.8659 49.2148 14.4531 49.3906 12.8906 49.3906C11.4844 49.3906 10.0977 49.2083 8.73047 48.8438C7.36328 48.4661 6.11979 47.8997 5 47.1445C3.89323 46.3893 3.00781 45.4258 2.34375 44.2539C1.67969 43.082 1.34766 41.6953 1.34766 40.0938H7.22656C7.22656 40.9792 7.36328 41.7279 7.63672 42.3398C7.91016 42.9518 8.29427 43.4466 8.78906 43.8242C9.29688 44.2018 9.89583 44.4753 10.5859 44.6445C11.2891 44.8138 12.0573 44.8984 12.8906 44.8984C13.9062 44.8984 14.7396 44.7552 15.3906 44.4688C16.0547 44.1823 16.543 43.7852 16.8555 43.2773C17.181 42.7695 17.3438 42.1966 17.3438 41.5586ZM46.1523 32.1445V36.7148H31.3086V32.1445H46.1523ZM33.0469 20.5625V49H27.1875V20.5625H33.0469ZM50.332 20.5625V49H44.4922V20.5625H50.332ZM67.3438 25.4258L59.6094 49H53.3789L63.9453 20.5625H67.9102L67.3438 25.4258ZM73.7695 49L66.0156 25.4258L65.3906 20.5625H69.3945L80.0195 49H73.7695ZM73.418 38.4141V43.0039H58.3984V38.4141H73.418ZM101.621 32.1445V36.7148H86.7773V32.1445H101.621ZM88.5156 20.5625V49H82.6562V20.5625H88.5156ZM105.801 20.5625V49H99.9609V20.5625H105.801ZM131.465 44.4297V49H111.309V44.4297H131.465ZM131.172 23.8242L113.906 49H109.785V45.6406L127.188 20.5625H131.172V23.8242ZM129.16 20.5625V25.1523H109.805V20.5625H129.16ZM147.031 25.4258L139.297 49H133.066L143.633 20.5625H147.598L147.031 25.4258ZM153.457 49L145.703 25.4258L145.078 20.5625H149.082L159.707 49H153.457ZM153.105 38.4141V43.0039H138.086V38.4141H153.105ZM168.574 20.5625V49H162.734V20.5625H168.574ZM185.195 36.5195H177.891L177.852 32.4961H183.984C185.065 32.4961 185.951 32.3594 186.641 32.0859C187.331 31.7995 187.845 31.3893 188.184 30.8555C188.535 30.3086 188.711 29.6445 188.711 28.8633C188.711 27.9779 188.542 27.2617 188.203 26.7148C187.878 26.168 187.363 25.7708 186.66 25.5234C185.97 25.276 185.078 25.1523 183.984 25.1523H179.922V49H174.062V20.5625H183.984C185.638 20.5625 187.116 20.7188 188.418 21.0312C189.733 21.3438 190.846 21.819 191.758 22.457C192.669 23.0951 193.366 23.9023 193.848 24.8789C194.329 25.8424 194.57 26.9883 194.57 28.3164C194.57 29.4883 194.303 30.569 193.77 31.5586C193.249 32.5482 192.422 33.3555 191.289 33.9805C190.169 34.6055 188.704 34.9505 186.895 35.0156L185.195 36.5195ZM184.941 49H176.289L178.574 44.4297H184.941C185.97 44.4297 186.81 44.2669 187.461 43.9414C188.112 43.6029 188.594 43.1471 188.906 42.5742C189.219 42.0013 189.375 41.3438 189.375 40.6016C189.375 39.7682 189.232 39.0456 188.945 38.4336C188.672 37.8216 188.229 37.3529 187.617 37.0273C187.005 36.6888 186.198 36.5195 185.195 36.5195H179.551L179.59 32.4961H186.621L187.969 34.0781C189.701 34.0521 191.094 34.3581 192.148 34.9961C193.216 35.6211 193.991 36.4349 194.473 37.4375C194.967 38.4401 195.215 39.5143 195.215 40.6602C195.215 42.4831 194.818 44.0195 194.023 45.2695C193.229 46.5065 192.064 47.4375 190.527 48.0625C189.004 48.6875 187.142 49 184.941 49Z" fill="white"/>
<defs>
<linearGradient id="paint0_linear_110_44" x1="45.619" y1="11.8281" x2="45.619" y2="59.1858" gradientUnits="userSpaceOnUse">
<stop stop-color="#8576FF"/>
<stop offset="1" stop-color="#1C1678"/>
</linearGradient>
<linearGradient id="paint1_linear_110_44" x1="93.1497" y1="0" x2="93.1497" y2="71" gradientUnits="userSpaceOnUse">
<stop stop-color="#8576FF"/>
<stop offset="1" stop-color="#1C1678"/>
</linearGradient>
<linearGradient id="paint2_linear_110_44" x1="140.681" y1="11.7949" x2="140.681" y2="59.1835" gradientUnits="userSpaceOnUse">
<stop stop-color="#8576FF"/>
<stop offset="1" stop-color="#1C1678"/>
</linearGradient>
</defs>
</svg>
