<svg width="50" height="14" viewBox="0 0 50 14" fill="none" xmlns="http://www.w3.org/2000/svg">
<path d="M12.9402 2.60184C12.3033 2.4043 11.4828 2.309 10.6581 2.33676C9.83352 2.36452 9.0719 2.51309 8.53984 2.74998L0.727813 6.25055C0.257659 6.46008 0 6.72471 0 6.99807C0 7.27142 0.257659 7.53606 0.727813 7.74558L8.53984 11.2462C8.80192 11.3647 9.12417 11.4628 9.48806 11.5347C9.85196 11.6066 10.2503 11.6509 10.6603 11.6652C11.0702 11.6794 11.4837 11.6632 11.8768 11.6176C12.2699 11.5719 12.6351 11.4977 12.9511 11.3992C13.2672 11.3007 13.528 11.1798 13.7186 11.0435C13.9092 10.9073 14.0257 10.7583 14.0615 10.6051C14.0974 10.4519 14.0518 10.2976 13.9274 10.1511C13.803 10.0045 13.6023 9.86861 13.3367 9.75112L7.19104 6.99811L13.3369 4.24505C13.8676 4.00747 14.124 3.70092 14.0496 3.39278C13.9752 3.08464 13.5762 2.80014 12.9402 2.60184Z" fill="#8576FF"/>
<path d="M28.7351 0.0205639C27.9234 -0.0368257 27.0837 0.0270017 26.3967 0.198326C25.7097 0.36965 25.2301 0.634792 25.061 0.936759L18.8114 12.6053C18.7303 12.7556 18.7295 12.9103 18.8091 13.0607C18.8886 13.2111 19.0469 13.3541 19.2749 13.4816C19.5029 13.6091 19.796 13.7185 20.1375 13.8035C20.479 13.8886 20.8621 13.9476 21.2649 13.9772C21.4677 13.9928 21.6742 14.0004 21.8813 14C22.603 13.9996 23.302 13.9058 23.8595 13.7346C24.4169 13.5635 24.7984 13.3255 24.9389 13.0611L31.1886 1.39254C31.2697 1.24227 31.2705 1.0875 31.1909 0.937115C31.1114 0.786729 30.9531 0.64369 30.7251 0.51621C30.4972 0.388731 30.204 0.279321 29.8625 0.194264C29.521 0.109207 29.1379 0.0501771 28.7351 0.0205639Z" fill="#8576FF"/>
<path d="M49.2722 6.25075L41.4602 2.75017C41.1981 2.63161 40.8759 2.53355 40.512 2.46164C40.1481 2.38973 39.7497 2.3454 39.3398 2.33117C38.9298 2.31695 38.5164 2.33313 38.1233 2.37877C37.7301 2.42442 37.365 2.49863 37.0489 2.59714C36.7329 2.69565 36.472 2.81652 36.2815 2.9528C36.0909 3.08908 35.9744 3.23808 35.9385 3.39124C35.9027 3.54439 35.9483 3.69868 36.0727 3.84524C36.1971 3.99179 36.3978 4.12772 36.6633 4.2452L42.809 6.9983L36.6632 9.75136C36.3976 9.86885 36.1969 10.0048 36.0725 10.1513C35.9481 10.2979 35.9025 10.4522 35.9384 10.6053C35.9742 10.7585 36.0908 10.9075 36.2813 11.0438C36.4719 11.18 36.7327 11.3009 37.0488 11.3994C37.3649 11.4979 37.73 11.5721 38.1231 11.6178C38.5163 11.6634 38.9297 11.6796 39.3396 11.6654C39.7496 11.6512 40.1479 11.6068 40.5118 11.5349C40.8757 11.463 41.198 11.365 41.4601 11.2464L49.2722 7.74578C49.7424 7.53625 50.0001 7.27162 50.0001 6.99826C50.0001 6.72491 49.7424 6.46027 49.2722 6.25075Z" fill="#8576FF"/>
</svg>
