<svg width="227" height="71" viewBox="0 0 227 71" fill="none" xmlns="http://www.w3.org/2000/svg">
<path d="M58.6166 13.1962C55.7313 12.1946 52.0146 11.7113 48.2793 11.8521C44.5439 11.9929 41.0939 12.7462 38.6838 13.9474L3.29685 31.6978C1.16715 32.7603 0 34.1022 0 35.4883C0 36.8744 1.16715 38.2163 3.29685 39.2787L38.6838 57.0291C39.8709 57.6303 41.3306 58.1275 42.979 58.4922C44.6274 58.8568 46.432 59.0816 48.2889 59.1537C50.1459 59.2258 52.0186 59.1438 53.7995 58.9124C55.5804 58.6809 57.2343 58.3046 58.666 57.8051C60.0978 57.3056 61.2793 56.6927 62.1425 56.0016C63.0057 55.3106 63.5336 54.5551 63.696 53.7785C63.8583 53.0019 63.6518 52.2195 63.0883 51.4764C62.5248 50.7332 61.6155 50.044 60.4127 49.4482L32.574 35.4885L60.4134 21.5285C62.8175 20.3238 63.9788 18.7693 63.6418 17.2069C63.3049 15.6444 61.4973 14.2018 58.6166 13.1962Z" fill="#2C258F"/>
<path d="M130.164 0.104274C126.487 -0.186733 122.684 0.136918 119.572 1.00565C116.46 1.87439 114.287 3.21885 113.521 4.75004L85.2119 63.9179C84.8447 64.6799 84.8412 65.4646 85.2015 66.2271C85.5618 66.9896 86.2788 67.7149 87.3115 68.3612C88.3441 69.0076 89.672 69.5623 91.219 69.9936C92.7659 70.4249 94.5013 70.7242 96.3257 70.8743C97.2443 70.9534 98.1801 70.9921 99.1179 70.9899C102.387 70.9878 105.553 70.5123 108.079 69.6444C110.604 68.7765 112.332 67.5697 112.968 66.2294L141.278 7.06118C141.645 6.29921 141.649 5.51441 141.289 4.75184C140.929 3.98928 140.212 3.26397 139.179 2.61756C138.146 1.97114 136.818 1.41636 135.271 0.985058C133.724 0.553757 131.989 0.254434 130.164 0.104274Z" fill="#2C258F"/>
<path d="M223.193 31.6973L187.806 13.9469C186.619 13.3456 185.159 12.8484 183.511 12.4838C181.862 12.1192 180.058 11.8944 178.201 11.8222C176.344 11.7501 174.471 11.8321 172.69 12.0636C170.909 12.295 169.256 12.6713 167.824 13.1709C166.392 13.6704 165.211 14.2833 164.347 14.9743C163.484 15.6654 162.956 16.4209 162.794 17.1975C162.632 17.9741 162.838 18.7565 163.402 19.4996C163.965 20.2427 164.874 20.932 166.077 21.5277L193.916 35.4879L166.076 49.4479C164.874 50.0436 163.964 50.7329 163.401 51.476C162.837 52.2191 162.631 53.0015 162.793 53.7781C162.956 54.5547 163.483 55.3103 164.347 56.0013C165.21 56.6923 166.391 57.3052 167.823 57.8047C169.255 58.3043 170.909 58.6806 172.69 58.912C174.471 59.1435 176.343 59.2255 178.2 59.1534C180.057 59.0813 181.862 58.8564 183.51 58.4918C185.159 58.1272 186.618 57.63 187.805 57.0287L223.193 39.2781C225.323 38.2157 226.49 36.8738 226.49 35.4877C226.49 34.1016 225.323 32.7597 223.193 31.6973Z" fill="#2C258F"/>
</svg>
